<svg id="Layer_1" data-name="Layer 1" xmlns="http://www.w3.org/2000/svg" xmlns:xlink="http://www.w3.org/1999/xlink" viewBox="0 0 1085.95 267.37"><defs><style>.cls-1{fill:#7f3f98;}.cls-2{fill:url(#linear-gradient);}.cls-3{fill:url(#linear-gradient-2);}.cls-4{fill:#fff;}</style><linearGradient id="linear-gradient" x1="421.89" y1="612.07" x2="464.58" y2="612.07" gradientTransform="translate(1.25 -1.85) rotate(0.11)" gradientUnits="userSpaceOnUse"><stop offset="0" stop-color="#162532"/><stop offset="1" stop-color="#231f20"/></linearGradient><linearGradient id="linear-gradient-2" x1="243.61" y1="645.53" x2="440.8" y2="842.72" gradientTransform="matrix(1, 0, 0, 1, 0, 0)" xlink:href="#linear-gradient"/></defs><path class="cls-1" d="M636.91,733.33c2.92,3.8,5.11,7.16,5.11,12.12,0,10.95-8.32,16.5-18.39,16.5H591.51c-5.55,0-10.37-1-14.75-4.67-3.94-3.22-6.86-8.47-6.86-13.58,0-4.67,2.63-8.76,7.74-8.76,4.23,0,6.86,3.5,6.86,7.44,0,4.38,2.33,5,6.42,5H622.6c1.17,0,4.82.44,4.82-1.75,0-1.17-2-3.36-2.63-4.24L574.72,677c-3.07-3.94-4.82-6.86-4.82-12a16.26,16.26,0,0,1,7.74-14c4.08-2.63,7.44-2.63,12.11-2.63h31c5.54,0,10.21,1.17,14.45,4.82,3.79,3.36,6.86,8.76,6.86,13.87,0,4.67-2.34,8.47-7.59,8.47-4.38,0-7-2.77-7-6.86,0-5-2.48-5.7-7-5.7H589.46c-1.6,0-5-.44-5,2,0,1.31,1.6,3.06,2.19,3.94Z" transform="translate(-185.03 -552.54)"/><path class="cls-1" d="M702.46,762c-5.84,0-8.17,0-12.55-3.8l-6-5.25c-5.55-5-7.15-8.18-7.15-15.77v-27c0-7.45,1-11.83,6.86-16.79l5-4.23c6.57-5.7,9.79-5.84,15.48-5.84h12.85c6.86,0,10.07.73,15.47,5.11l5.7,4.52c6.42,5.11,7.3,10.51,7.3,18.25v11.24c0,8-1.32,10.37-9.64,10.37h-45v4.67a6.86,6.86,0,0,0,2.05,4.09l3.5,3.79c1.9,2.05,4.67,2.63,9.34,2.63h30.08c4.67,0,9.64,1,9.64,7s-5.55,7-9.64,7Zm-11.68-43.22h40.59v-8.46c0-2.63.15-4.82-1.75-6.57l-5.4-4.68c-1.76-1.6-4.53-1.75-6.72-1.75H705.67c-2.62,0-4.81,0-7.15,1.61l-4.82,3.5c-1.75,1.32-2.92,2.34-2.92,6.43Z" transform="translate(-185.03 -552.54)"/><path class="cls-1" d="M781.89,693.62c0-5.11.58-10.36,7-10.36,5.55,0,7,4.67,7,9.34v5.69l11-9c3.94-3.21,8-6,12.41-6H830.5a18.52,18.52,0,0,1,13.73,5.54c4.67,4.68,6.27,9.49,6.27,15.92,0,4.82-.87,9.78-6.86,9.78-5.11,0-7.15-4.09-7.15-8.61,0-2.34,0-4.09-1.46-6.14-1.75-2.48-5.11-2.48-8.47-2.48h-4.09c-2.63,0-4.52,1.32-7,3.36L795.9,716.84v35.47c0,4.82-1,9.64-7,9.64s-7-4.82-7-9.64Z" transform="translate(-185.03 -552.54)"/><path class="cls-1" d="M912.7,762c-5.84,0-8.18,0-12.56-3.8l-6-5.25c-5.55-5-7.16-8.18-7.16-15.77v-27c0-7.45,1-11.83,6.87-16.79l5-4.23c6.57-5.7,9.78-5.84,15.48-5.84h12.84c6.86,0,10.08.73,15.48,5.11l5.69,4.52c6.43,5.11,7.3,10.51,7.3,18.25v11.24c0,8-1.31,10.37-9.63,10.37H901v4.67a6.84,6.84,0,0,0,2,4.09l3.51,3.79c1.9,2.05,4.67,2.63,9.34,2.63H946c4.67,0,9.63,1,9.63,7s-5.54,7-9.63,7ZM901,718.73h40.59v-8.46c0-2.63.14-4.82-1.76-6.57l-5.4-4.68c-1.75-1.6-4.52-1.75-6.71-1.75H915.91c-2.63,0-4.82,0-7.15,1.61l-4.82,3.5c-1.75,1.32-2.92,2.34-2.92,6.43Z" transform="translate(-185.03 -552.54)"/><path class="cls-1" d="M1006.14,711.58v40.73c0,4.82-1,9.64-7,9.64s-7-4.82-7-9.64V693.62c0-5.11.59-10.36,7-10.36s7,5.25,7,10.22v1.89l11.39-7.44c3.65-2.34,7.59-4.67,12.11-4.67H1040c5.4,0,8.76,1.46,13,5.11,6.28,5.4,6,11.38,6.28,19l1.46,44.09c.15,5-.58,10.51-6.86,10.51-5.7,0-6.86-4.82-7-9.49l-1.46-43.22c-.29-8.61-1-12-9.49-12h-4.67a8.42,8.42,0,0,0-4.38,1.32Z" transform="translate(-185.03 -552.54)"/><path class="cls-1" d="M1125.42,735.52c0,7.89-.29,12.41,9.34,12.41h7.16c5.69,0,8.32-.43,9.78-6.13a7.16,7.16,0,0,1,7-5.69,7,7,0,0,1,7.16,7c0,3.95-2.48,8.91-4.82,11.68-5.11,6.14-11.83,7.16-19.27,7.16h-7.16c-7,0-13.13-1.61-18.1-7-5.4-6-5.11-12-5.11-19.56V697.27h-4.52c-4.09,0-9.64-.87-9.64-7,0-6,5-7,9.64-7h4.52V669c0-4.82,1-9.64,7-9.64s7,4.82,7,9.64v14.31h23.5c4.67,0,9.64,1,9.64,7,0,6.14-5.55,7-9.64,7h-23.5Z" transform="translate(-185.03 -552.54)"/><path class="cls-1" d="M1225.86,697.27c-4.08,0-9.63-.87-9.63-7,0-6,5-7,9.63-7h19.27c7.3,0,12.56.73,18.11,6.27s6.13,9.64,6.28,16.65l1.46,47.59c.14,4.09-1.9,8.18-6.57,8.18-3.65,0-7.3-3.07-7.16-7l-9.63,5c-3.95,2.05-4.09,2.05-8.62,2.05h-13.43c-6.28,0-10.8-.73-15.91-5-5.84-4.81-7.3-9.92-7.3-17.22v-6.13c0-6.72,1.6-11,6.86-15.63,4.82-4.23,10.22-5.25,16.35-5.25h30.08v-3.21c0-10.52-2.34-12.27-12.41-12.27Zm-.14,29.49c-3.8,0-9.35,1-9.35,6.14v9.34c0,4.67,5.7,5.69,9.05,5.69h15.48l15.48-8v-3.06c0-7.74-2.19-10.08-9.93-10.08Z" transform="translate(-185.03 -552.54)"/><path class="cls-2" d="M456.38,571.42l-24.54,0a8.31,8.31,0,0,0-8.32,8.29l-1.62,37.7a9.33,9.33,0,0,0,2.67,5.76l25.52,25a8.3,8.3,0,0,0,14.45-5.55l.13-62.81A8.31,8.31,0,0,0,456.38,571.42Z" transform="translate(-185.03 -552.54)"/><path class="cls-3" d="M493.74,699.36s-125.95-123-138.91-139.5c-4.45-5.65-8.81-7.42-12.61-7.32h0c-3.8-.1-8.15,1.67-12.6,7.32-13,16.49-138.91,139.5-138.91,139.5s-15,13,4,22.62h14.72s11.85-.8,9.45,16l1.33,81.3,122,.63h0l122-.63,1.34-81.3c-2.4-16.8,9.44-16,9.44-16h14.73C508.78,712.38,493.74,699.36,493.74,699.36Z" transform="translate(-185.03 -552.54)"/><path class="cls-4" d="M444,710.27c-4.55-2.63-11.52-2.11-16.29-.53a17.45,17.45,0,0,0-3.22,1.43c-4.84-17-6.27-34.58-16.74-49.75-11.11-16.1-39.48-10.33-55.69-10.15-20.88.22-52.44-7.37-70.19,7.65-12.77,10.8-24.23,35.28-24.69,53.33a17.22,17.22,0,0,0-11.65-3.65,13.64,13.64,0,0,0-12.42,12.27c-.36,5.18,3.18,9.14,7.5,11.46a27.82,27.82,0,0,0,8.2,2.9c-2.2,24.31-11.66,62.43,8.13,79.52,15.28,13.19,32.37-2.39,33.61-18.31,18,5.25,37,8.15,55.64,6.71,16.74-1.3,32.46-5.68,48.7-6.22,4.18,13.43,20.64,28.67,34.25,20.2,9.87-6.15,10.94-25.44,11-35.34.11-14.19-1.27-31.43-5.17-46.31a18.16,18.16,0,0,0,14.7-8.32C453.86,720.86,449.77,713.64,444,710.27ZM277.67,769.43c-16.12,0-16.12-25,0-25S293.79,769.43,277.67,769.43Zm56.77-45.8a186.06,186.06,0,0,1-41.51-3.86c-7.07-1.43-13.42-4.49-20.17-6.52,3.75-13.65,8.05-29.28,16.63-39.75,11.38-13.88,46.88-6.11,62.62-6.19,21-.1,41.63-4.79,50.13,19.15,3,8.56,4.42,18.1,7,26.91a90.67,90.67,0,0,1-12.25,4.07c-7.91,1.37-15.82,2.81-23.73,4.24C359.86,723.08,346.35,723.32,334.44,723.63Zm69.07,45.55c-16.13,0-16.13-25,0-25S419.63,769.18,403.51,769.18Z" transform="translate(-185.03 -552.54)"/></svg>